<?xml version="1.0" standalone="no"?>
<!DOCTYPE svg PUBLIC "-//W3C//DTD SVG 20010904//EN" "http://www.w3.org/TR/2001/REC-SVG-20010904/DTD/svg10.dtd">
<svg version="1.0" xmlns="http://www.w3.org/2000/svg" width="1024.000000pt" height="1024.000000pt"
    viewBox="0 0 1024.000000 1024.000000" preserveAspectRatio="xMidYMid meet">
    <metadata>
        Created by potrace 1.16, written by Peter Selinger 2001-2019
    </metadata>
    <g transform="translate(0.000000,1024.000000) scale(0.100000,-0.100000)" fill="#000000" stroke="none">
        <path d="M3614 9495 c-53 -53 -114 -235 -140 -415 -27 -190 -50 -440 -42 -452
5 -9 8 -7 8 7 0 42 118 472 199 728 23 70 41 133 41 138 0 6 -9 7 -21 4 -15
-5 -19 -4 -15 4 12 19 -4 12 -30 -14z" />
        <path d="M6715 9453 c-73 -50 -221 -250 -213 -288 5 -24 308 251 308 280 0 34
-50 39 -95 8z" />
        <path d="M3037 9413 c-17 -16 -2 -59 66 -194 40 -79 81 -171 92 -204 10 -33
31 -76 46 -95 15 -19 37 -66 49 -105 48 -156 80 -234 80 -194 0 25 -39 252
-55 323 -22 92 -81 269 -110 326 -54 105 -136 176 -168 143z" />
        <path d="M5876 9354 c-12 -31 -5 -81 29 -224 37 -156 96 -370 114 -410 8 -19
10 -4 5 70 -3 52 -7 109 -9 125 -2 17 -7 73 -10 125 -4 52 -13 126 -21 163 -8
38 -14 81 -14 95 0 41 -26 72 -59 72 -17 0 -31 -7 -35 -16z" />
        <path d="M6237 9353 c-24 -28 -63 -132 -87 -235 -19 -81 -33 -180 -54 -388
l-6 -55 14 45 c8 25 28 83 46 130 17 47 33 92 35 100 19 75 79 239 109 298 47
89 44 122 -8 122 -19 0 -40 -7 -49 -17z" />
        <path d="M3955 9269 c-59 -37 -183 -161 -241 -239 -42 -57 -247 -460 -234
-460 4 0 14 15 21 32 14 33 89 138 126 175 11 11 48 62 84 113 75 111 193 237
278 300 53 39 61 49 58 75 -3 42 -31 43 -92 4z" />
        <path d="M2812 9138 c-7 -7 -12 -16 -12 -22 0 -13 132 -136 141 -131 7 5 58
-52 144 -160 27 -33 60 -74 74 -91 28 -34 44 -53 79 -98 34 -45 26 -12 -21 83
-82 161 -117 216 -210 324 -77 89 -160 130 -195 95z" />
        <path d="M5582 9090 c-11 -19 4 -36 190 -219 112 -110 204 -198 206 -196 7 7
-204 324 -241 363 -69 72 -130 92 -155 52z" />
        <path d="M2365 9060 c-15 -17 -16 -24 -6 -47 13 -29 48 -48 206 -112 44 -18
114 -52 155 -75 41 -23 93 -50 115 -60 154 -69 205 -99 205 -122 0 -13 3 -23
8 -23 21 4 24 -2 7 -15 -16 -11 -17 -17 -7 -29 10 -12 10 -16 0 -19 -22 -8 36
-38 78 -41 37 -2 39 0 42 30 3 28 -6 41 -75 109 -42 42 -100 94 -128 116 -77
60 -170 130 -217 163 -172 123 -336 177 -383 125z" />
        <path d="M6470 9040 c-19 -10 -54 -38 -76 -62 -48 -49 -236 -319 -229 -326 3
-3 40 27 82 67 43 39 118 106 168 149 169 145 161 136 147 166 -14 31 -42 33
-92 6z" />
        <path d="M4310 9033 c-43 -8 -241 -93 -340 -145 -105 -56 -166 -96 -221 -142
-20 -17 -73 -60 -117 -96 -45 -36 -81 -69 -81 -73 -1 -4 24 7 55 24 195 108
471 233 610 274 49 15 107 32 128 39 28 8 47 23 63 49 l23 37 -20 20 c-19 19
-46 23 -100 13z" />
        <path d="M5232 8978 c-11 -15 -2 -41 25 -76 13 -16 50 -32 122 -53 57 -16 152
-52 212 -79 60 -28 159 -73 220 -101 61 -28 113 -49 115 -47 2 3 -42 40 -97
84 -133 105 -238 167 -394 234 -99 43 -122 50 -155 50 -21 0 -42 -6 -48 -12z" />
        <path d="M6625 8795 c-22 -9 -65 -26 -95 -37 -30 -11 -104 -48 -165 -81 -60
-33 -122 -67 -137 -74 -16 -8 -28 -17 -28 -20 0 -7 45 4 185 44 66 18 185 47
265 64 80 16 150 31 155 32 39 9 48 50 14 67 -35 20 -150 22 -194 5z" />
        <path d="M7580 8764 c0 -4 17 -34 38 -68 37 -59 82 -163 82 -190 0 -10 -22 -7
-92 12 -81 22 -117 25 -273 28 -99 1 -220 -2 -270 -8 -49 -5 -155 -11 -234
-12 -112 -1 -145 -4 -149 -15 -2 -7 26 -42 67 -80 86 -80 89 -73 -70 -148
-170 -81 -329 -196 -502 -362 -116 -112 -237 -253 -237 -277 0 -15 12 -18 24
-6 4 4 40 7 79 8 40 1 84 5 100 9 32 9 34 2 8 -33 -31 -45 -97 -182 -134 -282
-34 -90 -79 -328 -69 -358 2 -7 21 7 45 35 23 26 70 78 105 114 35 37 69 75
77 85 17 22 17 15 5 -46 -21 -96 -30 -255 -20 -340 9 -81 35 -198 46 -209 13
-14 43 23 80 100 26 52 44 78 47 69 3 -8 20 -64 37 -125 31 -106 32 -116 31
-286 -2 -245 13 -327 86 -474 49 -98 96 -162 225 -303 160 -175 288 -275 388
-303 25 -7 48 -15 51 -18 4 -3 9 -27 13 -53 5 -39 3 -48 -10 -48 -21 0 -146
-61 -222 -109 -35 -22 -102 -52 -149 -67 -130 -41 -326 -143 -420 -218 -130
-103 -234 -245 -273 -371 -7 -22 -16 -44 -20 -48 -4 -4 -12 81 -19 190 -6 109
-16 257 -21 328 -8 112 -14 303 -11 357 1 14 13 18 69 20 l67 3 0 120 0 120
-72 3 -73 3 -2 62 c-3 88 1 220 7 234 3 9 26 13 67 13 95 0 107 6 101 43 -3
24 10 68 50 167 l55 136 -7 84 c-3 47 -9 84 -14 84 -4 -1 -60 -7 -125 -13 -64
-7 -171 -20 -237 -29 -174 -25 -979 -24 -1245 0 -101 9 -186 15 -188 13 -2 -2
2 -46 8 -97 12 -89 15 -96 64 -163 118 -159 126 -172 126 -207 l0 -33 101 3
102 4 -7 -149 c-4 -81 -11 -152 -15 -156 -4 -4 -35 -8 -67 -9 -32 0 -70 -2
-83 -5 l-23 -4 7 -117 c4 -69 12 -120 19 -124 6 -4 39 -8 74 -8 l62 0 0 -109
c0 -59 -4 -166 -10 -237 -5 -71 -12 -165 -15 -209 -3 -44 -10 -120 -15 -170
-5 -49 -12 -143 -16 -207 l-7 -118 -129 0 c-119 0 -129 1 -124 18 3 9 15 60
26 112 11 52 45 181 75 286 70 244 70 274 3 274 -26 0 -28 -3 -29 -37 0 -46
-38 -80 -102 -95 -53 -12 -215 -108 -360 -215 -62 -45 -118 -87 -125 -94 -17
-14 -36 -10 -157 40 -115 48 -249 90 -384 121 -115 26 -318 37 -344 18 -21
-16 -55 -112 -58 -165 -2 -31 -6 -39 -19 -36 -14 4 -15 12 -6 64 7 43 7 68 -2
92 -18 50 -15 96 6 104 9 3 24 12 33 20 11 9 56 16 135 20 166 8 325 -20 533
-94 177 -62 175 -61 179 -48 7 19 -336 147 -448 167 -151 26 -286 28 -397 4
-27 -6 -28 -3 -9 27 14 22 66 255 66 297 0 22 1 22 19 6 38 -35 81 -133 88
-199 l6 -64 116 -11 c148 -14 246 -40 446 -115 161 -61 189 -67 209 -47 8 8 3
17 -16 33 -14 12 -33 36 -41 53 -23 45 -100 127 -167 177 -63 48 -142 81 -280
117 -138 37 -287 114 -350 182 -22 24 -23 28 -12 46 6 9 27 7 93 -10 75 -19
92 -20 161 -10 81 12 137 36 238 104 71 47 268 250 361 372 18 23 24 25 30 13
5 -8 12 -97 15 -198 6 -157 4 -193 -11 -249 -23 -86 -23 -94 -3 -98 12 -2 25
9 39 32 11 20 26 36 32 36 6 0 7 3 4 6 -8 8 33 84 45 84 4 0 8 7 8 15 0 8 8
23 18 33 18 20 18 19 40 105 15 56 38 83 26 30 -4 -23 -3 -25 6 -13 9 12 10
10 6 -12 -4 -15 -9 -54 -12 -86 -10 -90 9 -86 47 10 54 141 50 254 -26 608
-14 63 -37 173 -51 243 l-27 128 36 77 c38 81 61 163 73 250 7 56 13 63 29 33
6 -10 21 -38 34 -62 13 -24 32 -72 42 -108 10 -35 20 -65 22 -67 5 -5 53 120
61 157 32 145 25 296 -20 425 -36 107 -70 161 -145 237 -56 56 -63 67 -45 67
23 0 140 -66 189 -107 44 -36 57 -31 57 25 -1 91 -55 167 -180 252 -119 81
-247 122 -389 125 l-94 1 -61 67 c-75 82 -200 160 -306 192 -165 49 -258 60
-515 59 -228 -1 -246 -2 -349 -28 -136 -35 -236 -67 -309 -100 -30 -14 -58
-26 -61 -26 -3 0 -6 12 -6 28 -1 46 -60 143 -117 188 -143 116 -382 124 -598
19 -192 -93 -295 -234 -367 -505 -26 -98 -32 -138 -36 -267 -2 -86 1 -189 7
-238 12 -88 37 -169 50 -160 4 2 32 57 61 122 50 111 107 202 164 266 14 15
27 27 29 27 7 0 -141 -336 -175 -397 -68 -122 -136 -198 -242 -272 -53 -37
-66 -41 -118 -41 -38 0 -73 7 -99 19 -36 18 -41 18 -46 4 -8 -20 21 -73 57
-108 34 -32 147 -75 199 -75 21 0 60 7 87 15 27 8 53 15 57 15 4 0 -11 -33
-33 -72 -150 -264 -199 -464 -155 -633 20 -77 63 -143 134 -206 57 -51 138
-105 146 -97 3 3 -7 28 -20 57 -57 116 -73 284 -32 325 16 17 17 16 17 -12 0
-52 39 -182 76 -252 64 -123 170 -207 310 -245 76 -20 299 -32 269 -14 -73 45
-126 105 -164 183 -38 81 -71 170 -71 194 0 7 35 -18 78 -55 83 -71 192 -133
236 -133 14 0 26 3 26 6 0 3 -23 26 -50 51 -83 74 -135 186 -159 343 -9 57
-15 391 -8 488 1 18 17 15 17 -3 0 -24 40 -143 68 -205 40 -88 127 -212 187
-268 31 -29 58 -52 61 -52 3 0 17 -11 32 -25 33 -31 116 -75 143 -75 15 0 19
-7 19 -30 0 -17 9 -57 20 -90 28 -83 20 -109 -51 -164 -63 -49 -75 -66 -160
-221 -39 -73 -74 -121 -131 -177 -42 -43 -81 -78 -87 -78 -22 0 -273 -103
-337 -138 -94 -52 -171 -139 -212 -239 -55 -134 -142 -473 -160 -621 l-9 -74
46 -51 c44 -48 204 -206 234 -231 12 -9 16 -115 21 -669 5 -562 9 -663 22
-697 9 -21 22 -41 30 -44 8 -3 92 -31 187 -62 164 -54 371 -128 448 -160 l36
-16 6 -141 c4 -78 7 -327 7 -554 0 -252 4 -431 11 -461 13 -63 64 -124 121
-147 48 -19 174 -19 3828 -11 2053 4 1927 1 1989 60 16 16 39 50 50 77 21 47
21 60 19 604 -2 478 -1 557 12 569 21 20 216 91 491 180 l237 76 4 58 c3 31 3
343 0 692 l-5 636 26 17 c47 31 200 167 320 284 134 132 125 108 102 301 -18
144 -49 286 -77 351 -23 55 -102 162 -160 217 -78 75 -224 156 -423 234 -94
37 -119 52 -171 102 -70 66 -174 123 -211 113 -13 -3 -21 -10 -18 -15 4 -6 3
-19 0 -30 -20 -65 -89 82 -89 189 1 64 40 235 72 311 13 32 15 33 27 16 32
-43 88 -97 97 -94 15 5 31 63 69 238 42 193 65 247 134 320 14 14 33 36 44 50
l19 25 24 -22 23 -22 12 27 c82 191 128 360 149 557 9 83 18 151 18 152 1 1
28 -7 59 -19 56 -21 58 -21 72 -2 21 28 19 52 -20 182 -64 216 -129 352 -230
479 l-65 83 48 -8 c26 -3 65 -7 87 -7 l40 0 -1 46 c0 64 -45 150 -113 218 -65
65 -185 129 -293 158 l-68 17 0 62 c0 122 -56 242 -155 333 -51 46 -95 69 -95
50 0 -4 9 -47 20 -94 21 -90 25 -161 11 -183 -5 -9 -16 -1 -36 30 -117 179
-349 358 -534 412 -57 17 -101 21 -101 10z m-5477 -931 c17 -9 42 -19 55 -22
22 -6 18 -13 -62 -91 -151 -148 -247 -313 -310 -537 -47 -166 -59 -253 -60
-426 -1 -159 -5 -160 -37 -8 -42 203 -18 415 69 616 60 137 113 214 238 345
84 87 92 99 78 111 -21 18 -138 14 -195 -5 -53 -19 -67 -20 -52 -5 36 36 220
51 276 22z m887 -108 c0 -9 -8 -19 -17 -22 -10 -4 -23 -12 -29 -17 -7 -6 -36
-29 -65 -51 -80 -59 -189 -171 -239 -245 -62 -92 -134 -250 -160 -350 -13 -52
-24 -133 -27 -208 -4 -90 -9 -120 -17 -112 -7 7 -11 54 -10 123 0 89 6 133 28
217 47 178 157 370 283 492 47 46 236 188 249 188 2 0 4 -7 4 -15z m4810 -309
c23 -59 40 -109 38 -112 -3 -2 -26 0 -52 5 -48 9 -224 -1 -281 -15 l-29 -7 26
44 c26 45 86 156 156 291 22 42 43 82 47 89 5 7 17 -28 31 -88 12 -55 41 -148
64 -207z m-1000 -131 c12 -49 25 -96 28 -104 3 -7 -16 3 -41 22 -44 34 -115
57 -173 57 l-25 0 19 28 c11 15 32 52 47 82 15 30 44 80 63 110 l36 55 12 -80
c6 -44 22 -120 34 -170z m515 87 c-10 -48 -30 -123 -46 -166 -38 -103 -37
-111 1 -91 16 8 34 15 40 15 6 0 44 16 83 34 122 59 310 79 456 50 40 -8 54
-37 78 -154 17 -88 27 -110 42 -95 5 6 32 52 59 104 l50 93 8 -158 c4 -88 7
-246 7 -353 -1 -200 4 -241 33 -241 10 0 14 5 10 15 -8 21 14 55 35 55 23 0
127 114 189 204 48 72 51 75 104 86 62 13 91 3 138 -47 58 -60 79 -174 54
-294 -22 -103 -84 -216 -157 -286 -76 -72 -215 -110 -283 -78 -44 21 -61 11
-71 -41 -7 -39 -91 -158 -151 -215 -57 -54 -229 -185 -309 -237 -114 -73 -427
-222 -467 -222 -123 0 -303 137 -494 375 -120 150 -191 261 -235 370 -8 19
-15 120 -19 270 -7 234 -8 243 -40 345 -39 123 -41 187 -11 281 28 84 37 98
46 70 3 -11 9 -21 13 -21 4 0 18 28 32 63 l26 62 80 -1 c79 -1 206 -33 230
-58 6 -6 20 -35 32 -63 28 -71 79 -143 101 -143 16 0 34 25 40 55 1 6 9 17 16
25 7 8 15 22 17 30 2 8 11 23 20 33 9 11 20 38 23 61 11 69 76 184 179 315 28
35 52 58 54 52 2 -7 -4 -51 -13 -99z m-3384 -48 c17 -25 56 -98 86 -163 30
-64 68 -145 86 -181 20 -42 32 -86 35 -124 l5 -59 -24 21 c-29 28 -112 59
-178 68 -41 5 -56 3 -86 -16 -51 -31 -65 -48 -65 -76 0 -30 16 -31 100 -4 71
23 126 25 198 8 37 -8 52 -17 56 -32 6 -22 -18 -222 -33 -271 -9 -33 -11 -31
-32 48 -13 45 -18 50 -81 83 -38 18 -77 34 -88 34 -34 0 -96 -37 -129 -77 -35
-42 -65 -122 -55 -146 11 -30 41 -20 48 16 6 32 59 107 69 97 3 -3 -1 -30 -9
-60 -20 -71 -14 -212 9 -257 21 -40 56 -64 82 -57 28 8 73 70 86 118 11 42 7
193 -6 235 -12 37 17 22 37 -20 13 -26 19 -78 24 -219 13 -296 12 -314 -25
-405 -42 -104 -118 -208 -244 -333 -162 -162 -280 -239 -381 -249 -70 -7 -211
28 -316 79 -342 165 -393 196 -427 261 -19 38 -39 434 -38 787 l0 265 40 22
c44 24 239 83 275 83 21 0 20 -2 -14 -44 -20 -24 -36 -46 -36 -49 0 -2 44 9
98 26 183 56 252 65 288 36 18 -15 44 18 44 54 1 28 9 37 65 75 35 24 89 68
120 98 31 30 59 54 61 54 2 0 -1 -12 -7 -27 -6 -16 -10 -29 -10 -30 0 -2 -1
-8 -4 -15 -2 -7 -11 -48 -20 -90 -15 -76 -38 -144 -69 -203 -18 -33 -9 -45 35
-45 48 0 171 128 247 256 59 101 123 319 134 462 2 22 17 12 49 -34z m-590
-62 c-5 -10 -28 -43 -50 -73 -22 -30 -50 -69 -63 -87 -35 -51 -150 -196 -162
-204 -17 -12 -56 -9 -56 4 0 27 42 95 69 111 62 37 139 107 200 186 63 80 81
98 62 63z m-1134 -674 c48 -33 61 -70 54 -153 -6 -71 -13 -76 -26 -18 -6 32
-55 83 -78 83 -52 -1 -97 -51 -97 -109 0 -42 16 -40 24 4 12 64 72 75 106 19
l23 -36 -26 -66 c-39 -104 -40 -110 -22 -158 16 -44 69 -99 85 -89 16 10 25
-20 25 -82 0 -71 -2 -72 -70 -43 -71 30 -167 131 -195 205 -20 55 -22 71 -16
180 8 172 27 221 100 266 41 25 73 24 113 -3z m5917 -800 c3 -18 5 -82 4 -143
-1 -156 31 -292 108 -463 32 -70 33 -73 17 -110 -17 -42 -183 -216 -288 -301
-162 -133 -308 -209 -456 -237 -251 -48 -426 58 -446 269 -6 66 -6 67 33 113
21 26 48 58 60 72 l20 25 19 -136 c18 -135 18 -136 49 -151 30 -15 31 -14 39
12 12 39 11 199 -1 249 l-10 41 62 55 c33 31 97 84 141 118 141 110 209 176
416 400 112 120 209 219 216 219 6 0 14 -15 17 -32z m-2454 -126 c3 -84 1
-147 -4 -153 -6 -5 -113 -9 -252 -9 l-243 0 -3 43 c-2 23 -2 93 0 155 l3 112
247 -2 247 -3 5 -143z m-3273 -109 c8 -21 20 -49 26 -63 6 -14 9 -29 8 -33 -3
-15 83 -132 143 -195 53 -56 124 -102 155 -102 16 0 13 37 -4 63 -8 13 -17 43
-20 66 -3 24 -8 48 -11 52 -7 13 -34 170 -34 203 0 26 4 24 66 -45 37 -41 135
-141 219 -224 l153 -150 -58 -194 c-55 -186 -59 -196 -89 -210 -17 -8 -31 -18
-31 -23 0 -27 -38 8 -135 124 -60 73 -148 175 -195 228 -47 53 -112 127 -145
164 -95 108 -107 131 -100 196 9 80 26 180 32 180 2 0 11 -17 20 -37z m-16
-349 c30 -39 73 -95 95 -125 23 -30 76 -92 119 -139 87 -96 165 -195 165 -210
0 -6 4 -10 9 -10 5 0 23 -21 40 -47 16 -27 43 -61 58 -77 25 -28 27 -35 26
-108 -1 -43 -5 -83 -9 -90 -11 -18 -104 -2 -179 32 -257 115 -529 404 -586
622 l-13 46 46 54 c25 29 67 86 93 127 l47 73 18 -38 c10 -22 42 -71 71 -110z
m3283 38 c10 -16 16 -158 27 -576 5 -236 6 -432 2 -437 -4 -4 -135 -10 -290
-14 l-283 -8 0 134 c0 129 14 562 26 797 l6 112 253 0 c140 0 256 -4 259 -8z
m2803 -380 c-26 -59 -95 -151 -171 -227 -116 -115 -416 -315 -473 -315 -43 0
-20 22 83 78 252 137 420 281 520 445 36 57 64 71 41 19z m-5288 -514 c36 -14
66 -29 68 -34 2 -6 -14 -18 -35 -27 -30 -13 -70 -16 -210 -16 -174 0 -330 -14
-367 -34 -11 -5 -28 -18 -38 -28 -27 -29 -37 -23 -37 21 0 27 7 47 20 60 11
11 16 20 10 20 -5 0 -10 3 -10 8 0 4 46 16 103 26 229 42 392 43 496 4z m2311
-1108 c0 -371 0 -685 0 -697 0 -23 0 -23 -172 -23 -95 0 -178 4 -184 8 -6 4
-35 54 -64 112 -66 132 -320 613 -327 620 -3 3 -4 -161 -2 -365 l4 -370 -167
-3 -167 -2 -7 27 c-4 15 -4 203 -1 417 4 215 7 518 7 674 l0 282 177 -2 178
-3 108 -200 c59 -110 146 -275 193 -367 46 -93 86 -168 88 -168 2 0 2 24 0 53
-1 28 -5 195 -8 369 l-6 318 168 2 c92 2 170 1 174 -2 4 -3 8 -309 8 -680z
m2292 647 c87 -42 137 -93 175 -176 57 -122 34 -280 -55 -370 -26 -26 -58 -55
-71 -64 -14 -9 -23 -18 -20 -20 2 -2 32 -23 67 -46 102 -69 145 -153 145 -286
0 -181 -89 -307 -262 -374 -65 -25 -69 -25 -413 -29 l-347 -3 -7 26 c-4 15 -4
77 0 138 4 62 7 365 7 674 l0 563 242 3 c466 6 452 7 539 -36z m-5564 -224
l-3 -258 173 -3 172 -2 0 260 0 260 183 -2 182 -3 1 -305 c0 -168 2 -480 5
-695 l4 -390 -185 0 -185 0 4 268 4 267 -182 0 -181 0 0 -270 0 -270 -182 2
-183 3 -3 698 -2 697 190 0 191 0 -3 -257z m1698 230 c16 -71 62 -240 131
-478 42 -143 92 -325 113 -405 21 -80 57 -207 80 -284 22 -76 40 -152 38 -170
l-3 -31 -185 0 -185 0 -28 125 c-16 69 -31 131 -33 138 -3 10 -45 12 -185 10
l-182 -3 -29 -124 c-16 -68 -33 -130 -39 -138 -14 -16 -319 -19 -348 -3 -17 8
-16 18 19 152 132 507 164 632 186 708 14 47 50 181 80 299 30 118 57 218 60
223 3 4 117 8 254 8 l250 0 6 -27z m2607 -53 c28 -120 125 -482 172 -640 23
-80 46 -163 49 -185 4 -22 34 -133 67 -248 35 -122 58 -216 54 -227 -6 -20
-14 -20 -188 -18 l-182 3 -30 138 -30 137 -184 -2 -185 -3 -31 -135 -32 -135
-178 -3 c-98 -1 -182 1 -187 6 -11 11 49 252 187 758 58 209 116 430 130 490
14 60 28 117 31 127 5 16 24 17 262 15 l257 -3 18 -75z m2089 -555 c1 -349 2
-663 3 -697 l0 -63 -187 -3 -188 -2 -5 23 c-4 13 -4 48 -1 78 3 30 5 334 6
677 l0 622 185 0 185 0 2 -635z m-5710 -1289 c-1 -114 0 -217 3 -229 7 -26 21
-27 203 -20 l122 5 0 224 0 225 155 -3 156 -3 0 -595 1 -595 -158 0 -157 0 2
233 2 232 -167 0 -167 0 7 -235 7 -235 -160 0 -161 0 -2 535 c-1 294 -2 563
-3 598 l0 62 115 5 c63 3 135 5 160 5 l45 -1 -3 -208z m1576 198 c2 -1 23 -74
47 -161 23 -87 68 -252 100 -368 129 -472 172 -641 168 -652 -6 -17 -318 -19
-328 -3 -6 9 -17 53 -50 198 -5 22 -6 22 -167 20 l-161 -3 -26 -110 -27 -110
-162 -3 c-89 -1 -162 1 -162 5 0 25 132 525 235 888 30 105 57 208 61 230 4
22 11 50 15 62 l8 23 223 -6 c123 -4 225 -8 226 -10z m2241 2 c8 -9 11 -52 9
-127 l-3 -114 -222 -3 -223 -2 0 -105 0 -105 203 -2 202 -3 3 -117 3 -118
-206 0 -205 0 0 -115 0 -115 88 -1 c74 -2 331 -8 355 -9 4 0 7 -58 7 -130 l0
-130 -375 0 -375 0 0 598 c0 329 3 602 7 605 3 4 167 7 363 7 293 0 360 -2
369 -14z m505 -8 c8 -13 63 -113 122 -223 59 -110 138 -256 175 -324 l68 -125
-4 90 c-3 49 -7 203 -9 342 l-5 252 52 1 c29 1 88 3 132 4 45 2 86 0 93 -4 9
-5 12 -155 12 -601 l1 -595 -141 0 c-77 -1 -145 2 -150 5 -5 3 -27 37 -48 75
-104 187 -166 302 -236 435 l-76 145 0 -332 0 -333 -140 0 -140 0 0 599 c0
470 3 600 13 604 6 3 69 6 139 6 122 1 128 0 142 -21z m-2158 -33 c8 -22 46
-164 85 -315 38 -151 81 -311 93 -355 13 -44 27 -93 30 -109 4 -15 9 -27 11
-25 2 3 47 164 100 359 53 195 105 385 116 423 l20 67 144 0 c103 0 145 -3
145 -12 0 -10 -17 -77 -117 -453 -51 -192 -192 -687 -203 -712 -9 -23 -12 -23
-205 -23 -148 0 -197 3 -200 13 -112 358 -355 1163 -355 1178 0 6 61 8 161 7
l161 -3 14 -40z" />
        <path d="M7526 7058 c-66 -14 -113 -48 -157 -111 -33 -49 -37 -59 -20 -54 11
2 22 0 24 -7 2 -6 9 -1 16 12 6 12 20 22 29 22 10 0 23 5 30 12 18 18 27 1 11
-19 -45 -53 -53 -177 -19 -286 26 -85 55 -110 108 -95 49 13 59 22 89 82 20
39 27 71 31 133 3 47 0 88 -5 95 -6 7 -13 24 -16 38 -4 16 -24 37 -53 55 l-48
30 34 3 c75 8 191 -43 233 -102 22 -29 35 -55 68 -131 l13 -30 4 30 c2 16 -2
48 -9 70 -7 22 -13 45 -13 50 -1 6 -10 30 -21 53 -15 33 -33 51 -75 76 -125
73 -183 90 -254 74z" />
        <path d="M6619 7016 c-19 -7 -46 -19 -58 -28 -60 -42 -107 -149 -102 -235 1
-17 7 -23 25 -23 20 0 26 9 41 55 23 74 53 116 95 133 l35 14 -41 -40 c-49
-47 -58 -89 -44 -199 17 -131 71 -204 126 -169 12 9 34 31 49 50 59 77 56 284
-5 333 -12 10 -9 11 17 2 43 -14 90 -70 99 -114 8 -43 28 -41 32 2 6 63 -73
183 -143 214 -47 22 -77 23 -126 5z" />
        <path d="M8385 6587 c-49 -49 -91 -117 -116 -185 -7 -21 1 -16 41 27 48 51 51
53 65 35 8 -10 20 -34 27 -51 7 -18 16 -33 20 -33 4 0 8 -8 8 -18 0 -32 -62
-81 -118 -94 -52 -13 -60 -23 -30 -42 22 -13 100 17 145 57 33 29 34 33 30 82
-4 50 -26 104 -53 136 -12 14 -9 20 23 52 57 57 79 49 119 -46 l21 -50 7 56
c11 84 -22 127 -98 127 -34 0 -46 -7 -91 -53z" />
        <path d="M7190 6133 c-115 -9 -288 -64 -307 -98 -5 -7 -17 -15 -28 -17 -24 -4
-22 -28 4 -67 10 -14 38 -61 62 -104 75 -135 152 -194 269 -204 82 -8 153 16
221 74 76 65 159 190 159 238 0 11 11 36 23 55 13 19 22 40 20 47 -2 6 -25 19
-51 27 -66 21 -257 56 -295 54 -18 -1 -52 -3 -77 -5z m195 -64 c109 -28 145
-40 145 -48 0 -4 -60 -18 -132 -31 -136 -24 -346 -34 -383 -19 -11 5 -39 13
-62 19 -24 6 -43 14 -43 19 0 9 110 48 170 60 64 13 258 13 305 0z m93 -182
c12 -6 22 -14 22 -19 0 -23 -118 -130 -173 -158 -97 -48 -175 -37 -258 38 -36
32 -47 48 -39 56 22 28 116 69 183 82 82 15 231 15 265 1z" />
        <path d="M2926 6654 c-83 -26 -194 -160 -199 -241 -2 -34 0 -37 25 -39 32 -3
44 10 51 56 10 65 30 107 61 125 17 10 34 18 39 17 4 -1 7 1 7 6 0 4 18 8 40
9 22 1 51 5 65 7 28 5 33 -5 11 -24 -8 -6 -22 -34 -32 -62 -19 -58 -15 -192 7
-243 20 -46 60 -85 87 -85 34 0 88 43 97 77 3 15 11 31 17 34 6 4 13 41 16 83
3 55 8 76 18 76 35 0 -5 129 -53 172 -52 48 -161 61 -257 32z" />
        <path d="M3180 5738 c0 -8 21 -25 48 -39 44 -23 57 -24 212 -24 146 0 169 2
198 20 48 29 40 38 -30 31 -129 -14 -174 -16 -153 -6 14 7 1 9 -50 8 -38 -1
-79 1 -90 4 -12 3 -46 9 -78 13 -46 6 -57 5 -57 -7z" />
        <path d="M7358 3540 c-1 -66 -2 -128 -2 -137 -1 -16 10 -18 84 -21 149 -5 210
37 210 144 0 97 -55 134 -200 134 l-90 0 -2 -120z" />
        <path d="M7350 2958 l0 -171 91 6 c103 7 169 33 203 80 17 23 21 44 21 104 0
74 -1 76 -35 104 -38 32 -56 36 -187 43 l-93 4 0 -170z" />
        <path d="M3646 3600 c-3 -8 -19 -85 -36 -170 -16 -85 -41 -197 -55 -248 -14
-51 -25 -96 -25 -100 0 -7 242 -4 248 3 2 1 -9 54 -23 116 -14 63 -39 175 -56
249 -33 145 -44 176 -53 150z" />
        <path d="M6236 3600 c-3 -8 -21 -91 -41 -183 -19 -92 -44 -203 -55 -247 -11
-43 -20 -83 -20 -89 0 -7 42 -11 125 -11 69 0 125 3 125 8 0 15 -112 498 -120
517 -6 16 -9 17 -14 5z" />
        <path d="M4226 1853 c-18 -89 -80 -347 -92 -377 -5 -14 7 -16 116 -16 93 0
121 3 118 13 -3 6 -29 114 -58 240 -30 125 -57 227 -60 227 -4 0 -15 -39 -24
-87z" />
        <path d="M2480 8613 c-19 -2 -63 -13 -98 -24 -103 -34 -106 -80 -5 -95 50 -7
84 -4 273 26 74 11 154 24 178 27 23 3 42 9 42 12 0 14 -76 40 -147 50 -69 11
-169 12 -243 4z" />
        <path d="M3911 8605 c-94 -15 -312 -70 -341 -87 -9 -5 10 -6 50 -2 177 16 458
6 620 -23 97 -17 91 -17 148 -15 34 2 42 5 42 21 0 30 -39 66 -100 91 -47 20
-75 24 -190 26 -80 2 -174 -3 -229 -11z" />
        <path d="M5443 8590 c-55 -11 -100 -35 -114 -61 -13 -25 -8 -30 43 -46 35 -10
51 -9 124 12 45 14 146 32 223 42 78 9 138 20 134 24 -5 4 -30 10 -58 13 -27
3 -70 10 -95 15 -54 12 -199 12 -257 1z" />
        <path d="M6241 8504 c32 -38 222 -91 285 -79 36 6 52 41 30 64 -18 17 -43 21
-199 25 -104 2 -125 1 -116 -10z" />
        <path d="M5840 8450 c-25 -10 -71 -28 -103 -40 -77 -30 -223 -127 -274 -183
-46 -49 -59 -83 -49 -122 11 -43 42 -31 109 41 53 57 137 128 246 209 52 38
125 104 121 108 -3 2 -25 -4 -50 -13z" />
        <path d="M3555 8453 c6 -5 60 -24 120 -42 192 -57 398 -156 558 -270 69 -49
92 -60 119 -58 29 2 33 6 36 34 3 26 -5 40 -50 85 -29 29 -75 64 -103 78 -27
14 -52 27 -55 31 -10 12 -166 67 -235 83 -38 9 -132 25 -208 36 -76 11 -150
23 -165 26 -17 4 -23 3 -17 -3z" />
        <path d="M5934 8373 c-129 -143 -188 -234 -200 -310 -7 -43 14 -77 41 -67 22
9 62 84 70 133 4 25 15 57 24 72 14 24 127 221 138 242 12 21 -11 -1 -73 -70z" />
        <path d="M6056 8368 c-9 -40 -20 -104 -26 -143 -14 -110 -4 -151 36 -143 18 3
19 17 21 181 1 97 -1 177 -6 177 -4 0 -15 -33 -25 -72z" />
        <path d="M2964 8398 c-83 -9 -294 -71 -349 -103 -22 -13 -53 -37 -68 -53 -30
-31 -52 -98 -36 -108 5 -3 33 11 62 30 79 53 418 176 612 223 36 9 31 11 -56
14 -53 2 -128 1 -165 -3z" />
        <path d="M3546 8371 c5 -4 63 -56 129 -113 139 -122 183 -167 218 -224 40 -64
101 -116 102 -86 1 4 4 17 8 29 9 26 -16 80 -62 133 -17 19 -31 38 -31 42 0 8
-105 88 -115 88 -3 0 -32 17 -63 38 -88 59 -222 126 -186 93z" />
        <path d="M4476 7884 c-46 -47 -26 -106 47 -133 38 -15 53 -14 71 5 24 23 19
73 -10 116 -33 47 -69 51 -108 12z" />
        <path d="M5336 7562 c-4 -6 -13 -9 -20 -6 -19 7 -72 -99 -100 -204 -13 -50
-22 -93 -19 -96 7 -6 115 175 145 242 13 28 16 47 10 58 -6 11 -12 13 -16 6z" />
        <path d="M5080 7553 c0 -7 -7 -13 -15 -13 -10 0 -15 -10 -15 -34 0 -19 7 -41
15 -50 9 -9 15 -33 15 -60 0 -64 31 -199 43 -187 5 5 9 56 9 113 0 151 -1 168
-13 168 -6 0 -9 7 -6 15 3 7 -3 24 -13 37 -11 13 -19 17 -20 11z" />
        <path d="M5494 7390 c-58 -13 -284 -182 -284 -211 0 -14 17 -11 34 6 8 8 19
15 25 15 6 0 11 7 11 16 0 8 4 13 9 9 6 -3 25 4 43 15 18 11 40 20 49 20 9 0
19 7 23 15 3 8 10 15 16 15 6 0 8 -5 5 -10 -13 -21 73 32 99 60 14 17 23 30
20 30 -4 0 -1 7 6 15 10 12 9 15 -6 14 -11 -1 -33 -4 -50 -9z" />
        <path d="M4720 7202 c-26 -25 -28 -31 -16 -47 12 -16 31 -18 180 -19 129 -1
169 -4 175 -15 6 -10 14 -11 27 -3 39 22 -189 112 -283 112 -45 0 -58 -4 -83
-28z" />
        <path d="M5355 7162 c-5 -11 -9 -13 -12 -4 -3 6 -14 12 -26 12 -60 0 42 -38
118 -44 17 -2 58 -9 92 -16 52 -12 66 -12 88 0 14 7 25 16 25 19 0 3 -19 14
-41 25 -28 13 -70 19 -139 22 -86 3 -99 2 -105 -14z" />
        <path d="M5230 7114 c0 -3 46 -54 101 -114 86 -91 133 -129 146 -117 9 9 -77
150 -107 175 -37 31 -140 73 -140 56z" />
        <path d="M4405 4966 c-49 -15 -147 -68 -195 -104 -19 -15 -38 -28 -42 -28 -5
-1 -12 -2 -18 -3 -5 0 -17 -15 -26 -33 -21 -40 -39 -59 -49 -50 -5 4 -5 1 -1
-6 4 -7 1 -15 -8 -18 -18 -7 -22 -44 -6 -44 6 0 61 36 123 79 139 98 228 144
285 146 55 2 49 -14 -14 -34 -27 -9 -71 -28 -98 -43 -27 -16 -50 -28 -52 -28
-11 0 -206 -155 -244 -194 -24 -25 -50 -46 -56 -46 -19 0 -28 -21 -13 -30 9
-6 25 2 49 23 116 106 334 243 437 278 47 15 63 25 63 39 0 10 5 22 10 25 19
12 10 52 -15 69 -29 19 -74 20 -130 2z" />
    </g>
</svg>